<svg width="65" height="65" viewBox="0 0 65 65" fill="none" xmlns="http://www.w3.org/2000/svg">
<g opacity="0.6">
<path d="M26.6771 22.8042C25.675 22.3979 24.5917 22.2354 23.4812 22.2625C22.7771 22.2625 22.1542 22.2625 21.6396 22.2896C21.0979 22.2625 20.7187 22.2896 20.5292 22.3167V31.4167C20.9083 31.4438 21.2604 31.4708 21.5854 31.4708H23.0208C24.0771 31.4708 25.1333 31.3083 26.1354 30.9833C27.0021 30.7396 27.7604 30.225 28.3562 29.5479C28.925 28.8708 29.1958 27.95 29.1958 26.7583C29.2229 25.9188 29.0062 25.0792 28.5729 24.3479C28.1125 23.6438 27.4625 23.1021 26.6771 22.8042V22.8042ZM53.4896 0.8125H11.5104C5.14583 0.8125 0 5.95833 0 12.3229V52.6744C0 59.039 5.14583 64.1848 11.5104 64.1848H53.4896C59.8542 64.1848 65 59.039 65 52.6744V12.3229C65 5.95833 59.8542 0.8125 53.4896 0.8125ZM33.4723 32.3646C32.3917 33.8813 30.875 35.0188 29.1146 35.6688C27.2729 36.3458 25.2417 36.5896 23.0208 36.5896C22.3708 36.5896 21.9375 36.5896 21.6667 36.5625C21.3958 36.5354 21.0167 36.5354 20.5021 36.5354V45.2265C20.5292 45.416 20.3937 45.5813 20.2042 45.6083H14.95C14.7333 45.6083 14.625 45.4973 14.625 45.2535V17.3875C14.625 17.1979 14.7062 17.0896 14.8958 17.0896C15.3562 17.0896 15.7896 17.0896 16.4125 17.0625C17.0625 17.0354 17.7396 17.0354 18.4708 17.0083C19.2021 16.9813 19.9875 16.9813 20.8271 16.9542C21.6667 16.9271 22.4792 16.9271 23.2917 16.9271C25.5125 16.9271 27.3542 17.1979 28.8708 17.7667C30.225 18.2271 31.4708 18.9854 32.5 19.9875C33.3667 20.8542 34.0437 21.9104 34.4771 23.075C34.8806 24.2125 35.0973 25.3771 35.0973 26.5958C35.1 28.925 34.5583 30.8479 33.4723 32.3646V32.3646ZM52.6771 42.9C51.9188 43.9833 50.8598 44.8202 49.6437 45.3131C48.3167 45.8792 46.6917 46.1744 44.739 46.1744C43.4958 46.1744 42.2744 46.0688 41.0583 45.825C40.1104 45.6598 39.1625 45.3646 38.2958 44.9583C38.1062 44.8527 37.9681 44.6631 37.9952 44.4465V39.734C37.9952 39.6554 38.025 39.5444 38.1062 39.4902C38.1848 39.436 38.2687 39.4631 38.35 39.5173C39.4062 40.1402 40.5167 40.5763 41.7083 40.8444C42.7348 41.1152 43.8181 41.2506 44.9042 41.2506C45.9333 41.2506 46.6646 41.1125 47.1521 40.8688C47.5854 40.6792 47.8833 40.2188 47.8833 39.7313C47.8833 39.3494 47.6667 39 47.2333 38.6479C46.8 38.2985 45.909 37.8923 44.5819 37.3723C43.2006 36.8848 41.9304 36.2348 40.736 35.425C39.8965 34.8265 39.195 34.0438 38.675 33.1229C38.2444 32.2563 38.0277 31.3083 38.0548 30.3577C38.0548 29.1931 38.3798 28.0827 38.9783 27.0806C39.6554 25.9973 40.6548 25.1306 41.8194 24.589C43.0896 23.9417 44.6875 23.6438 46.6104 23.6438C47.7208 23.6438 48.8583 23.725 49.9688 23.8875C50.7813 23.9958 51.5667 24.2125 52.2979 24.5104C52.4035 24.5375 52.5146 24.6458 52.5687 24.7542C52.5958 24.8625 52.6229 24.9708 52.6229 25.0792V29.4938C52.6229 29.6021 52.5687 29.7104 52.4875 29.7646C52.2437 29.8188 52.1083 29.8188 52 29.7646C51.1875 29.3313 50.3208 29.0333 49.4 28.8438C48.3979 28.6271 47.3958 28.4917 46.3667 28.4917C45.825 28.4646 45.2562 28.5458 44.739 28.6813C44.3896 28.7625 44.089 28.9521 43.8994 29.2229C43.764 29.4396 43.6827 29.7104 43.6827 29.9542C43.6827 30.1979 43.791 30.4417 43.9562 30.6583C44.2 30.9563 44.5223 31.2 44.8771 31.3896C45.4973 31.7146 46.15 32.0125 46.7973 32.2833C48.2625 32.7708 49.6708 33.4479 50.9708 34.2604C51.8646 34.8265 52.5958 35.5875 53.1077 36.5083C53.541 37.3696 53.7577 38.3229 53.7306 39.2952C53.7604 40.5708 53.3813 41.841 52.6771 42.9V42.9Z" fill="#F6F6F4"/>
</g>
</svg>
