<svg width="65" height="65" viewBox="0 0 65 65" fill="none" xmlns="http://www.w3.org/2000/svg">
<g opacity="0.6" clip-path="url(#clip0)">
<path d="M18.6827 1.18359C18.6827 1.18359 21.3152 1.4463 22.3714 4.07609C22.3714 4.07609 25.2666 10.9173 27.8964 17.4959C31.7423 26.5146 36.6173 38.1198 40.5443 47.4988H3.16121C1.05413 47.4988 0.0032959 46.1826 0.0032959 46.1826C2.10767 49.8659 8.1608 61.4467 8.1608 61.4467C9.21163 62.763 10.2652 63.5484 11.8441 63.5484C15.2675 63.5484 20.5325 60.1305 20.5325 60.1305L40.5985 47.6207C44.4227 56.7532 47.3693 63.8165 47.3693 63.8165H65.0006C65.2633 63.5538 39.74 3.02526 39.4773 2.75984C39.2145 2.49714 38.6864 1.18359 36.8448 1.18359H18.6827ZM17.8973 3.55339C16.3183 3.55339 15.7902 4.86693 15.5275 5.12964L1.05684 39.3413C0.268713 41.7084 0.794129 44.6036 5.00559 44.6036H16.3183L26.3202 20.6592C24.4197 15.9094 22.4895 11.1716 20.5298 6.44589C20.267 5.65776 19.4762 3.55339 17.8973 3.55339V3.55339Z" fill="#F6F6F4"/>
</g>
<defs>
<clipPath id="clip0">
<rect width="65" height="65" fill="white"/>
</clipPath>
</defs>
</svg>
