<svg width="65" height="65" viewBox="0 0 65 65" fill="none" xmlns="http://www.w3.org/2000/svg">
<g opacity="0.6" clip-path="url(#clip0)">
<path d="M32.5 0C23.8805 0 15.614 3.4241 9.51903 9.51903C3.4241 15.614 0 23.8805 0 32.5C0 41.1195 3.4241 49.386 9.51903 55.481C15.614 61.5759 23.8805 65 32.5 65C41.1195 65 49.386 61.5759 55.481 55.481C61.5759 49.386 65 41.1195 65 32.5C65 23.8805 61.5759 15.614 55.481 9.51903C49.386 3.4241 41.1195 0 32.5 0V0ZM25.5287 19.2833C27.3686 19.2945 29.1909 19.6433 30.9048 20.3125V23.511C29.0424 22.4762 26.9414 21.9477 24.811 21.9781C23.4847 21.934 22.1642 22.1739 20.9381 22.6816C19.712 23.1893 18.6085 23.9532 17.7017 24.9221C15.8006 27.0901 14.8177 29.9126 14.9608 32.7925C14.8191 35.5159 15.7362 38.1886 17.5202 40.2513C18.3751 41.1699 19.4183 41.8931 20.5784 42.3713C21.7386 42.8494 22.9884 43.0714 24.2423 43.0219C26.583 43.08 28.8937 42.4855 30.9156 41.3048L30.9048 44.2298C28.6938 45.3055 26.2525 45.8216 23.7954 45.7329C22.1721 45.804 20.5522 45.5274 19.0445 44.9216C17.5367 44.3157 16.1758 43.3947 15.0529 42.2202C12.7946 39.6896 11.6164 36.3757 11.7704 32.9875C11.692 31.1707 11.9788 29.3567 12.6138 27.6526C13.2488 25.9486 14.2191 24.3893 15.4673 23.0669C16.6866 21.8188 18.153 20.8388 19.7726 20.1897C21.3922 19.5405 23.1295 19.2364 24.8733 19.2969C24.9816 19.2921 25.09 19.2885 25.1983 19.286C25.3085 19.2848 25.4186 19.2848 25.5287 19.286V19.2833ZM41.4077 19.7031H43.6719L42.1687 26.8856H46.6673L48.2029 19.7031H50.3967L48.8935 26.8856L53.5844 26.8748L53.1781 28.7625H48.5062L47.3904 34.125H52.4062L51.9296 36.0154H47.0112L45.4404 43.1248H43.1925L44.7281 36.0154H40.2594L38.7562 43.1248H36.5625L38.0656 36.0154H33.3531L33.7079 34.125H38.4421L39.5281 28.7733H34.5827L34.9565 26.8856H39.9019L41.4077 19.7031ZM41.7923 28.7625L40.625 34.125H45.156L46.3017 28.7625H41.7923Z" fill="#F6F6F4"/>
</g>
<defs>
<clipPath id="clip0">
<rect width="65" height="65" fill="white"/>
</clipPath>
</defs>
</svg>
