<svg width="65" height="65" viewBox="0 0 65 65" fill="none" xmlns="http://www.w3.org/2000/svg">
<g opacity="0.6">
<path d="M65 25.8185L57.8879 0L31.3354 6.91979L27.4083 13.6635L19.4323 13.604L0 32.5L19.435 51.3988L27.4056 51.3365L31.3435 58.0802L57.8852 64.9973L65 39.1896L60.9592 32.5L65 25.8185ZM28.0475 14.7469L48.3573 9.67146L36.7006 29.3096H13.3792L28.0475 14.7469V14.7469ZM28.0475 50.2531L13.3792 35.6958H36.6979L48.3573 55.334L28.0448 50.2585L28.0475 50.2531ZM54.0421 52.1381L42.3773 32.5027L54.0421 12.8592L59.6727 32.5L54.0394 52.1354L54.0421 52.1381Z" fill="#F6F6F4"/>
</g>
</svg>
