<svg id="SvgjsSvg1011" width="288" height="288" xmlns="http://www.w3.org/2000/svg" version="1.1" xmlns:xlink="http://www.w3.org/1999/xlink" xmlns:svgjs="http://svgjs.com/svgjs"><defs id="SvgjsDefs1012"></defs><g id="SvgjsG1013" transform="matrix(1,0,0,1,0,0)"><svg xmlns="http://www.w3.org/2000/svg" xmlns:svgjs="http://svgjs.com/svgjs" xmlns:xlink="http://www.w3.org/1999/xlink" width="288" height="288"><svg xmlns="http://www.w3.org/2000/svg" width="288" height="288" viewBox="0 0 23 24"><path fill="#eeeeee" d="m15.266 12.001 4.2-7.249 2.03 7.253-2.03 7.25-4.2-7.25zm-2.047 1.177 4.201 7.254-7.316-1.876-5.285-5.378zm4.2-9.608-4.2 7.253h-8.4l5.285-5.378 7.314-1.875zm6 5.963-2.566-9.533-9.564 2.555-1.416 2.489-2.873-.021-7 6.978 7 6.977 2.871-.022 1.418 2.489 9.564 2.554 2.56-9.531-1.453-2.468z" class="color000 svgShape coloreee"></path></svg></svg></g></svg>