<svg width="100" height="100" viewBox="0 0 100 100" fill="none" xmlns="http://www.w3.org/2000/svg">
<path d="M50 0C36.4167 0 34.7208 0.0625 29.3875 0.3C24.0625 0.55 20.4375 1.3875 17.25 2.625C13.9625 3.9 11.1708 5.6125 8.39167 8.39167C5.6125 11.1708 3.89583 13.9583 2.625 17.25C1.3875 20.4375 0.545833 24.0625 0.3 29.3875C0.05 34.7208 0 36.4167 0 50C0 63.5833 0.0625 65.2792 0.3 70.6125C0.55 75.9333 1.3875 79.5625 2.625 82.75C3.9 86.0333 5.6125 88.8292 8.39167 91.6083C11.1708 94.3833 13.9583 96.1042 17.25 97.375C20.4417 98.6083 24.0667 99.4542 29.3875 99.7C34.7208 99.95 36.4167 100 50 100C63.5833 100 65.2792 99.9375 70.6125 99.7C75.9333 99.45 79.5625 98.6083 82.75 97.375C86.0333 96.1 88.8292 94.3833 91.6083 91.6083C94.3833 88.8292 96.1042 86.0458 97.375 82.75C98.6083 79.5625 99.4542 75.9333 99.7 70.6125C99.95 65.2792 100 63.5833 100 50C100 36.4167 99.9375 34.7208 99.7 29.3875C99.45 24.0667 98.6083 20.4333 97.375 17.25C96.1 13.9625 94.3833 11.1708 91.6083 8.39167C88.8292 5.6125 86.0458 3.89583 82.75 2.625C79.5625 1.3875 75.9333 0.545833 70.6125 0.3C65.2792 0.05 63.5833 0 50 0ZM50 9C63.3458 9 64.9375 9.06667 70.2083 9.29583C75.0833 9.525 77.7292 10.3333 79.4875 11.025C81.8292 11.9292 83.4875 13.0125 85.2458 14.7583C86.9917 16.5083 88.075 18.1708 88.9792 20.5125C89.6625 22.2708 90.4792 24.9167 90.7 29.7917C90.9375 35.0667 90.9917 36.65 90.9917 50C90.9917 63.35 90.9292 64.9375 90.6833 70.2083C90.4292 75.0833 89.6167 77.7292 88.9292 79.4875C87.9958 81.8292 86.9333 83.4875 85.1833 85.2458C83.4375 86.9917 81.75 88.075 79.4333 88.9792C77.6833 89.6625 74.9958 90.4792 70.1208 90.7C64.8125 90.9375 63.25 90.9917 49.875 90.9917C36.4958 90.9917 34.9333 90.9292 29.6292 90.6833C24.75 90.4292 22.0625 89.6167 20.3125 88.9292C17.9417 87.9958 16.3125 86.9333 14.5667 85.1833C12.8125 83.4375 11.6917 81.75 10.8167 79.4333C10.1292 77.6833 9.32083 74.9958 9.06667 70.1208C8.87917 64.8708 8.8125 63.25 8.8125 49.9375C8.8125 36.6208 8.87917 34.9958 9.06667 29.6833C9.32083 24.8083 10.1292 22.125 10.8167 20.375C11.6917 18 12.8125 16.375 14.5667 14.6208C16.3125 12.875 17.9417 11.75 20.3125 10.8792C22.0625 10.1875 24.6917 9.375 29.5667 9.125C34.8792 8.9375 36.4417 8.875 49.8125 8.875L50 9V9ZM50 24.325C35.8125 24.325 24.325 35.825 24.325 50C24.325 64.1875 35.825 75.675 50 75.675C64.1875 75.675 75.675 64.175 75.675 50C75.675 35.8125 64.175 24.325 50 24.325ZM50 66.6667C40.7917 66.6667 33.3333 59.2083 33.3333 50C33.3333 40.7917 40.7917 33.3333 50 33.3333C59.2083 33.3333 66.6667 40.7917 66.6667 50C66.6667 59.2083 59.2083 66.6667 50 66.6667ZM82.6917 23.3125C82.6917 26.625 80 29.3125 76.6917 29.3125C73.3792 29.3125 70.6917 26.6208 70.6917 23.3125C70.6917 20.0042 73.3833 17.3167 76.6917 17.3167C79.9958 17.3125 82.6917 20.0042 82.6917 23.3125Z" fill="black"/>
</svg>
