<svg width="75" height="75" viewBox="0 0 75 75" fill="none" xmlns="http://www.w3.org/2000/svg">
<path d="M63.8969 63.9125H52.7906V46.5094C52.7906 42.3594 52.7063 37.0187 47.0031 37.0187C41.2125 37.0187 40.3281 41.5344 40.3281 46.2031V63.9125H29.2219V28.125H39.8906V33.0031H40.0344C41.525 30.1906 45.15 27.2219 50.5656 27.2219C61.8187 27.2219 63.9 34.6281 63.9 44.2688V63.9125H63.8969ZM16.6781 23.2281C13.1031 23.2281 10.2312 20.3344 10.2312 16.775C10.2312 13.2188 13.1062 10.3281 16.6781 10.3281C20.2406 10.3281 23.1281 13.2188 23.1281 16.775C23.1281 20.3344 20.2375 23.2281 16.6781 23.2281ZM22.2469 63.9125H11.1094V28.125H22.2469V63.9125ZM69.4531 0H5.53438C2.475 0 0 2.41875 0 5.40312V69.5969C0 72.5844 2.475 75 5.53438 75H69.4438C72.5 75 75 72.5844 75 69.5969V5.40312C75 2.41875 72.5 0 69.4438 0H69.4531Z" fill="#E4EAF0"/>
</svg>
