<svg width="75" height="75" viewBox="0 0 75 75" fill="none" xmlns="http://www.w3.org/2000/svg">
<path d="M38.1435 2.47812C41.2372 2.47812 51.7278 3.34062 56.6747 14.4187C58.3278 18.1469 57.9341 24.4781 57.6091 29.5656L57.5997 29.7531C57.5622 30.3156 57.531 30.8312 57.506 31.3469C57.7403 31.4875 58.1403 31.6281 58.7591 31.6281C59.6966 31.5781 60.8185 31.2531 61.9872 30.6875C62.5028 30.4125 63.0622 30.3625 63.4372 30.3625C64.006 30.3625 64.5591 30.4531 65.0278 30.6437C66.4341 31.1094 67.3216 32.1406 67.3216 33.2625C67.3685 34.6656 66.1028 35.8844 63.531 36.9125C63.2528 37.0031 62.8778 37.1469 62.456 37.2844C61.0497 37.7062 58.8966 38.4094 58.2903 39.8156C58.0091 40.5156 58.0997 41.4531 58.6653 42.5281L58.7122 42.575C58.8997 43 63.481 53.4344 73.6841 55.1188C74.481 55.2563 75.0435 55.9625 74.9966 56.7094C74.9966 56.9437 74.9497 57.175 74.856 57.4125C74.106 59.1906 70.8778 60.5 65.0247 61.3844C64.8403 61.6687 64.6497 62.5562 64.5122 63.1656C64.4216 63.725 64.281 64.2906 64.0935 64.8938C63.856 65.7406 63.2497 66.1594 62.3591 66.1594H62.2653C61.8435 66.1594 61.2872 66.0625 60.5841 65.9281C59.4591 65.6937 58.1935 65.5062 56.606 65.5062C55.6685 65.5062 54.7341 65.5531 53.7528 65.7375C51.8778 66.0625 50.2435 67.1875 48.3685 68.5C45.7028 70.3719 42.6622 72.525 38.0747 72.525C37.8872 72.525 37.7028 72.4781 37.5122 72.4781H37.0466C32.4591 72.4781 29.4622 70.3688 26.7997 68.4531C24.9278 67.1406 23.3403 66.0187 21.4653 65.6906C20.4841 65.55 19.4997 65.4594 18.5653 65.4594C16.8778 65.4594 15.5716 65.7375 14.5903 65.925C13.931 66.0594 13.3685 66.1562 12.9028 66.1562C11.7341 66.1562 11.2685 65.4562 11.081 64.8437C10.8903 64.2437 10.7997 63.6281 10.6591 63.0719C10.5153 62.5063 10.331 61.5281 10.1403 61.2906C4.1466 60.5969 0.921598 59.2844 0.174723 57.4594C0.0778481 57.2625 0.0122231 56.9906 0.00284812 56.7563C-0.0440269 55.9969 0.518473 55.3031 1.31535 55.1656C11.5153 53.4781 16.0966 43.0438 16.2872 42.6031L16.3372 42.5125C16.8997 41.4344 17.0372 40.4969 16.7091 39.7969C16.0997 38.4406 13.9466 37.7406 12.5466 37.2687C12.1685 37.1781 11.7966 37.0375 11.4653 36.8969C8.00597 35.5375 7.53722 33.9906 7.72472 32.9188C8.00597 31.4219 9.83097 30.4406 11.3747 30.4406C11.831 30.4406 12.2185 30.5312 12.5716 30.6719C13.8841 31.2781 15.0372 31.6094 16.0216 31.6094C16.7528 31.6094 17.2216 31.4219 17.4747 31.2812L17.331 29.5031C17.0247 24.4219 16.6278 18.0937 18.2903 14.3875C23.0997 3.36562 33.5591 2.52187 36.6466 2.52187L37.956 2.475H38.1435V2.47812Z" fill="#E4EAF0"/>
</svg>
