<svg width="100" height="100" viewBox="0 0 100 100" fill="none" xmlns="http://www.w3.org/2000/svg">
<path d="M50.8579 3.30417C54.9829 3.30417 68.9704 4.45416 75.5662 19.225C77.7704 24.1958 77.2454 32.6375 76.8121 39.4208L76.7996 39.6708C76.7496 40.4208 76.7079 41.1083 76.6746 41.7958C76.9871 41.9833 77.5204 42.1708 78.3454 42.1708C79.5954 42.1042 81.0912 41.6708 82.6496 40.9167C83.3371 40.55 84.0829 40.4833 84.5829 40.4833C85.3412 40.4833 86.0787 40.6042 86.7037 40.8583C88.5787 41.4792 89.7621 42.8542 89.7621 44.35C89.8246 46.2208 88.1371 47.8458 84.7079 49.2167C84.3371 49.3375 83.8371 49.5292 83.2746 49.7125C81.3996 50.275 78.5287 51.2125 77.7204 53.0875C77.3454 54.0208 77.4662 55.2708 78.2204 56.7042L78.2829 56.7667C78.5329 57.3333 84.6412 71.2458 98.2454 73.4917C99.3079 73.675 100.058 74.6167 99.9954 75.6125C99.9954 75.925 99.9329 76.2333 99.8079 76.55C98.8079 78.9208 94.5037 80.6667 86.6996 81.8458C86.4537 82.225 86.1996 83.4083 86.0162 84.2208C85.8954 84.9667 85.7079 85.7208 85.4579 86.525C85.1412 87.6542 84.3329 88.2125 83.1454 88.2125H83.0204C82.4579 88.2125 81.7162 88.0833 80.7787 87.9042C79.2787 87.5917 77.5912 87.3417 75.4746 87.3417C74.2246 87.3417 72.9787 87.4042 71.6704 87.65C69.1704 88.0833 66.9912 89.5833 64.4912 91.3333C60.9371 93.8292 56.8829 96.7 50.7662 96.7C50.5162 96.7 50.2704 96.6375 50.0162 96.6375H49.3954C43.2787 96.6375 39.2829 93.825 35.7329 91.2708C33.2371 89.5208 31.1204 88.025 28.6204 87.5875C27.3121 87.4 25.9996 87.2792 24.7538 87.2792C22.5038 87.2792 20.7621 87.65 19.4538 87.9C18.5746 88.0792 17.8246 88.2083 17.2038 88.2083C15.6454 88.2083 15.0246 87.275 14.7746 86.4583C14.5204 85.6583 14.3996 84.8375 14.2121 84.0958C14.0204 83.3417 13.7746 82.0375 13.5204 81.7208C5.52876 80.7958 1.22876 79.0458 0.232923 76.6125C0.103757 76.35 0.0162568 75.9875 0.0037568 75.675C-0.0587432 74.6625 0.691257 73.7375 1.75376 73.5542C15.3538 71.3042 21.4621 57.3917 21.7163 56.8042L21.7829 56.6833C22.5329 55.2458 22.7163 53.9958 22.2788 53.0625C21.4663 51.2542 18.5954 50.3208 16.7288 49.6917C16.2246 49.5708 15.7288 49.3833 15.2871 49.1958C10.6746 47.3833 10.0496 45.3208 10.2996 43.8917C10.6746 41.8958 13.1079 40.5875 15.1663 40.5875C15.7746 40.5875 16.2913 40.7083 16.7621 40.8958C18.5121 41.7042 20.0496 42.1458 21.3621 42.1458C22.3371 42.1458 22.9621 41.8958 23.2996 41.7083L23.1079 39.3375C22.6996 32.5625 22.1704 24.125 24.3871 19.1833C30.7996 4.4875 44.7454 3.3625 48.8621 3.3625L50.6079 3.3H50.8579V3.30417Z" fill="black"/>
</svg>
