<svg width="100" height="100" viewBox="0 0 100 100" fill="none" xmlns="http://www.w3.org/2000/svg">
<path d="M99.8042 19.0417C96.0603 20.69 92.0942 21.7781 88.0333 22.2708C92.3088 19.701 95.51 15.671 97.0458 10.925C93.0833 13.2375 88.6917 14.9208 84.0167 15.8583C80.9323 12.5601 76.8453 10.3726 72.3902 9.63542C67.9351 8.89825 63.3612 9.6527 59.3789 11.7816C55.3966 13.9105 52.2286 17.2948 50.3669 21.4088C48.5052 25.5229 48.054 30.1365 49.0833 34.5333C32.0417 33.7292 16.9458 25.5417 6.83333 13.175C4.99497 16.2992 4.0361 19.8626 4.05833 23.4875C4.05833 30.6125 7.68333 36.875 13.175 40.5542C9.92024 40.4506 6.73738 39.5706 3.89167 37.9875V38.2375C3.88982 42.9725 5.52612 47.5622 8.52294 51.2281C11.5198 54.8941 15.6926 57.4103 20.3333 58.35C17.3262 59.1557 14.1767 59.2768 11.1167 58.7042C12.4338 62.7792 14.9903 66.3414 18.4292 68.8937C21.8682 71.4461 26.0181 72.8612 30.3 72.9417C23.048 78.6331 14.0937 81.7221 4.875 81.7125C3.25 81.7125 1.62917 81.6167 0 81.4333C9.39879 87.4513 20.3271 90.6458 31.4875 90.6375C69.2083 90.6375 89.8125 59.4042 89.8125 32.3667C89.8125 31.4917 89.8125 30.6167 89.75 29.7417C93.775 26.8453 97.2468 23.2492 100 19.125L99.8042 19.0417Z" fill="black"/>
</svg>
