<svg width="75" height="75" viewBox="0 0 75 75" fill="none" xmlns="http://www.w3.org/2000/svg">
<path d="M74.8531 14.2812C72.0453 15.5175 69.0706 16.3336 66.025 16.7031C69.2316 14.7758 71.6325 11.7533 72.7844 8.19375C69.8125 9.92812 66.5187 11.1906 63.0125 11.8937C60.6992 9.42009 57.634 7.77944 54.2926 7.22656C50.9513 6.67369 47.5209 7.23953 44.5342 8.83622C41.5474 10.4329 39.1714 12.9711 37.7752 16.0566C36.3789 19.1422 36.0405 22.6024 36.8125 25.9C24.0312 25.2969 12.7094 19.1562 5.125 9.88125C3.74623 12.2244 3.02707 14.897 3.04375 17.6156C3.04375 22.9594 5.7625 27.6562 9.88125 30.4156C7.44018 30.3379 5.05304 29.6779 2.91875 28.4906V28.6781C2.91737 32.2293 4.14459 35.6717 6.39221 38.4211C8.63983 41.1705 11.7694 43.0577 15.25 43.7625C12.9947 44.3668 10.6325 44.4576 8.3375 44.0281C9.32538 47.0844 11.2427 49.7561 13.8219 51.6703C16.4011 53.5845 19.5136 54.6459 22.725 54.7062C17.286 58.9748 10.5702 61.2916 3.65625 61.2844C2.4375 61.2844 1.22188 61.2125 0 61.075C7.04909 65.5885 15.2454 67.9844 23.6156 67.9781C51.9063 67.9781 67.3594 44.5531 67.3594 24.275C67.3594 23.6187 67.3594 22.9625 67.3125 22.3062C70.3312 20.1339 72.9351 17.4369 75 14.3437L74.8531 14.2812Z" fill="#E4EAF0"/>
</svg>
