<svg width="40" height="40" viewBox="0 0 40 40" fill="none" xmlns="http://www.w3.org/2000/svg">
<path d="M38.64 4.42334L20.3617 10.2567V4.49334L0.65 10.7833V27.4917L17.65 22.0617V27.7967L40 20.6717L33.9433 14.755L38.64 4.42334ZM17.6533 8.21501V19.2017L3.375 23.7567V12.77L17.6533 8.21501ZM33.7917 8.82667L30.7083 15.3267L34.945 19.4383L20.3617 24.09V13.1183L33.7917 8.82667ZM2.90167 29.7717C1.305 29.7717 0 31.0767 0 32.6733C0 34.2717 1.305 35.5767 2.90167 35.5767C3.67146 35.5767 4.40972 35.2709 4.95404 34.7266C5.49837 34.1822 5.80417 33.444 5.80417 32.6742C5.80417 31.9044 5.49837 31.1661 4.95404 30.6218C4.40972 30.0775 3.67146 29.7717 2.90167 29.7717V29.7717Z" fill="white"/>
</svg>
