<svg width="40" height="40" viewBox="0 0 40 40" fill="none" xmlns="http://www.w3.org/2000/svg">
<g clip-path="url(#clip0)">
<path d="M33.8617 7.28298C31.2684 6.09259 28.5316 5.24372 25.7198 4.75765C25.6943 4.75288 25.6679 4.7563 25.6444 4.7674C25.6209 4.7785 25.6015 4.79672 25.589 4.81948C25.2373 5.44498 24.8478 6.26082 24.5752 6.90198C21.5007 6.44165 18.4418 6.44165 15.4305 6.90198C15.1578 6.24648 14.7542 5.44498 14.401 4.81948C14.3879 4.79724 14.3684 4.77946 14.3451 4.76846C14.3218 4.75746 14.2957 4.75375 14.2702 4.75782C11.4581 5.24276 8.72116 6.09155 6.12817 7.28282C6.10599 7.29229 6.0873 7.30843 6.07467 7.32898C0.889007 15.0763 -0.53166 22.6331 0.16534 30.0963C0.167311 30.1146 0.172929 30.1323 0.181861 30.1483C0.190793 30.1644 0.202857 30.1785 0.21734 30.1898C3.63867 32.7025 6.95284 34.2278 10.2055 35.2388C10.2308 35.2464 10.2578 35.246 10.2829 35.2378C10.308 35.2296 10.3299 35.2139 10.3458 35.1928C11.1152 34.1421 11.801 33.0341 12.3892 31.8691C12.3973 31.8532 12.4019 31.8357 12.4027 31.8178C12.4036 31.8 12.4006 31.7821 12.3941 31.7655C12.3875 31.7489 12.3775 31.7338 12.3647 31.7213C12.3519 31.7088 12.3366 31.6991 12.3198 31.693C11.2318 31.2803 10.196 30.7771 9.19951 30.2058C9.18133 30.1951 9.16607 30.1802 9.15506 30.1622C9.14405 30.1442 9.13764 30.1238 9.13639 30.1028C9.13514 30.0817 9.13908 30.0607 9.14788 30.0416C9.15668 30.0224 9.17006 30.0057 9.18684 29.993C9.39651 29.8358 9.60634 29.6725 9.80651 29.5073C9.8243 29.4926 9.84583 29.4832 9.86868 29.4801C9.89153 29.477 9.91479 29.4804 9.93584 29.4898C16.4822 32.4786 23.5692 32.4786 30.0382 29.4898C30.0592 29.4798 30.0827 29.476 30.1059 29.4788C30.129 29.4816 30.1509 29.4909 30.169 29.5056C30.3693 29.6706 30.579 29.8358 30.7903 29.993C30.8072 30.0056 30.8206 30.0222 30.8295 30.0412C30.8384 30.0603 30.8425 30.0812 30.8415 30.1022C30.8404 30.1232 30.8341 30.1437 30.8233 30.1617C30.8125 30.1797 30.7974 30.1948 30.7793 30.2056C29.7825 30.7879 28.7382 31.2849 27.6577 31.6913C27.6409 31.6977 27.6257 31.7076 27.613 31.7203C27.6003 31.733 27.5904 31.7483 27.584 31.7651C27.5776 31.7818 27.5748 31.7998 27.5758 31.8177C27.5768 31.8357 27.5816 31.8532 27.5898 31.8691C28.1905 33.0325 28.8763 34.1405 29.6315 35.1911C29.6469 35.2128 29.6688 35.2291 29.694 35.2376C29.7192 35.2462 29.7464 35.2466 29.7718 35.2388C33.0402 34.2276 36.3543 32.7023 39.7757 30.1898C39.7904 30.1791 39.8027 30.1653 39.8117 30.1494C39.8207 30.1336 39.8262 30.116 39.8278 30.0978C40.6618 21.4695 38.4308 13.9746 33.9137 7.33048C33.9026 7.3089 33.8841 7.29199 33.8617 7.28282V7.28298ZM13.3667 25.552C11.3958 25.552 9.77184 23.7425 9.77184 21.5203C9.77184 19.2983 11.3643 17.4888 13.3668 17.4888C15.3848 17.4888 16.993 19.3141 16.9615 21.5205C16.9615 23.7425 15.369 25.552 13.3667 25.552V25.552ZM26.658 25.552C24.6872 25.552 23.0632 23.7425 23.0632 21.5203C23.0632 19.2983 24.6555 17.4888 26.658 17.4888C28.676 17.4888 30.2842 19.3141 30.2527 21.5205C30.2527 23.7425 28.676 25.552 26.658 25.552V25.552Z" fill="white"/>
</g>
<defs>
<clipPath id="clip0">
<rect width="40" height="40" fill="white"/>
</clipPath>
</defs>
</svg>
