<svg width="55" height="55" viewBox="0 0 55 55" fill="none" xmlns="http://www.w3.org/2000/svg">
<path d="M27.5 0.680626C12.3063 0.680626 0 12.9938 0 28.1806C0 40.3333 7.87875 50.639 18.8031 54.2712C20.1781 54.5302 20.6823 53.68 20.6823 52.949C20.6823 52.2958 20.6594 50.5656 20.6479 48.274C12.9983 49.9331 11.385 44.5844 11.385 44.5844C10.1338 41.4104 8.32563 40.5625 8.32563 40.5625C5.83458 38.8575 8.51813 38.8919 8.51813 38.8919C11.2796 39.0844 12.7302 41.7244 12.7302 41.7244C15.1823 45.9296 19.1675 44.715 20.7396 44.0115C20.9871 42.2331 21.6952 41.0208 22.4813 40.3333C16.374 39.6458 9.955 37.2808 9.955 26.7437C9.955 23.7417 11.0206 21.2896 12.7852 19.3646C12.4758 18.6702 11.5477 15.8744 13.0258 12.0863C13.0258 12.0863 15.329 11.3483 20.5883 14.905C22.7883 14.2931 25.1258 13.9906 27.4633 13.9769C29.8008 13.9906 32.1383 14.2931 34.3383 14.905C39.5633 11.3483 41.8665 12.0863 41.8665 12.0863C43.3446 15.8744 42.4165 18.6702 42.1415 19.3646C43.8946 21.2896 44.9602 23.7417 44.9602 26.7437C44.9602 37.3083 38.5321 39.6344 32.4133 40.3104C33.3758 41.1354 34.2696 42.8221 34.2696 45.3979C34.2696 49.0783 34.2352 52.0346 34.2352 52.9283C34.2352 53.6502 34.7165 54.5096 36.1258 54.2346C47.1281 50.6275 55 40.315 55 28.1806C55 12.9938 42.6869 0.680626 27.5 0.680626" fill="#E4EAF0"/>
</svg>
