<svg width="55" height="55" viewBox="0 0 55 55" fill="none" xmlns="http://www.w3.org/2000/svg">
<path d="M27.9719 1.81729C30.2407 1.81729 37.9338 2.44979 41.5615 10.5738C42.7738 13.3077 42.485 17.9506 42.2467 21.6815L42.2398 21.819C42.2123 22.2315 42.1894 22.6096 42.1711 22.9877C42.3429 23.0908 42.6363 23.194 43.09 23.194C43.7775 23.1573 44.6002 22.919 45.4573 22.5042C45.8354 22.3025 46.2456 22.2658 46.5206 22.2658C46.9377 22.2658 47.3434 22.3323 47.6871 22.4721C48.7184 22.8135 49.3692 23.5698 49.3692 24.3925C49.4036 25.4215 48.4754 26.3152 46.5894 27.0692C46.3854 27.1356 46.1104 27.241 45.8011 27.3419C44.7698 27.6513 43.1909 28.1669 42.7463 29.1981C42.54 29.7115 42.6065 30.399 43.0213 31.1873L43.0557 31.2217C43.1932 31.5333 46.5527 39.1852 54.035 40.4204C54.6194 40.5213 55.0319 41.0392 54.9975 41.5869C54.9975 41.7588 54.9631 41.9283 54.8944 42.1025C54.3444 43.4065 51.9771 44.3667 47.6848 45.0152C47.5496 45.2238 47.4098 45.8746 47.309 46.3215C47.2425 46.7317 47.1394 47.1465 47.0019 47.5888C46.8277 48.2098 46.3831 48.5169 45.73 48.5169H45.6613C45.3519 48.5169 44.944 48.4458 44.4284 48.3473C43.6034 48.1754 42.6752 48.0379 41.5111 48.0379C40.8236 48.0379 40.1384 48.0723 39.4188 48.2075C38.0438 48.4458 36.8452 49.2708 35.4702 50.2333C33.5154 51.606 31.2857 53.185 27.9215 53.185C27.784 53.185 27.6488 53.1506 27.509 53.1506H27.1675C23.8034 53.1506 21.6057 51.6038 19.6532 50.199C18.2804 49.2365 17.1163 48.4138 15.7413 48.1731C15.0217 48.07 14.2998 48.0035 13.6146 48.0035C12.3771 48.0035 11.4192 48.2075 10.6996 48.345C10.2161 48.4435 9.80358 48.5146 9.46212 48.5146C8.60504 48.5146 8.26358 48.0013 8.12608 47.5521C7.98629 47.1121 7.91983 46.6606 7.8167 46.2527C7.71129 45.8379 7.57608 45.1206 7.43629 44.9465C3.04087 44.4377 0.675871 43.4752 0.128163 42.1369C0.0571212 41.9925 0.00899617 41.7931 0.00212117 41.6213C-0.0322538 41.0644 0.380246 40.5556 0.964621 40.4548C8.44462 39.2173 11.8042 31.5654 11.944 31.2423L11.9807 31.1758C12.3932 30.3852 12.494 29.6977 12.2534 29.1844C11.8065 28.1898 10.2275 27.6765 9.20087 27.3304C8.92358 27.264 8.65087 27.1608 8.40795 27.0577C5.87108 26.0608 5.52733 24.9265 5.66483 24.1404C5.87108 23.0427 7.20941 22.3231 8.34149 22.3231C8.67608 22.3231 8.96024 22.3896 9.2192 22.4927C10.1817 22.9373 11.0273 23.1802 11.7492 23.1802C12.2855 23.1802 12.6292 23.0427 12.8148 22.9396L12.7094 21.6356C12.4848 17.9094 12.1938 13.2688 13.413 10.5508C16.9398 2.46813 24.61 1.84938 26.8742 1.84938L27.8344 1.815H27.9719V1.81729Z" fill="#E4EAF0"/>
</svg>
